<svg width="520" height="168" viewBox="0 0 520 168" fill="none" xmlns="http://www.w3.org/2000/svg">
  <defs>
    <filter id="textShadow" x="150" y="4" width="360" height="118" color-interpolation-filters="sRGB">
      <feDropShadow dx="3" dy="5" stdDeviation="3" flood-color="#000" flood-opacity=".45"/>
    </filter>
    <linearGradient id="blue" x1="24" y1="19" x2="136" y2="128" gradientUnits="userSpaceOnUse">
      <stop stop-color="#5d95ac"/>
      <stop offset=".45" stop-color="#0f5977"/>
      <stop offset="1" stop-color="#072f4e"/>
    </linearGradient>
    <linearGradient id="gold" x1="80" y1="23" x2="87" y2="119" gradientUnits="userSpaceOnUse">
      <stop stop-color="#d8c16a"/>
      <stop offset=".55" stop-color="#c5a84f"/>
      <stop offset="1" stop-color="#926e2a"/>
    </linearGradient>
  </defs>
  <path d="M19 54C28 25 51 15 71 30C80 9 105 9 114 30C136 15 158 27 166 55C176 91 147 137 92 137C38 137 8 91 19 54Z" fill="#041529"/>
  <path d="M28 54C35 32 53 25 69 37C76 15 101 15 108 37C126 25 145 35 151 56C159 84 136 119 91 119C47 119 20 84 28 54Z" fill="url(#blue)"/>
  <path d="M76 45H106L92 113L76 45Z" fill="url(#gold)"/>
  <circle cx="91" cy="24" r="16" fill="#d3b75c"/>
  <circle cx="53" cy="28" r="16" fill="#6f9caf"/>
  <circle cx="130" cy="28" r="16" fill="#6f9caf"/>
  <path d="M28 101C48 91 73 91 105 104C125 112 145 116 162 113L154 146C135 149 113 144 90 135C60 123 38 124 18 136L28 101Z" fill="#fff"/>
  <path d="M25 111C45 101 70 102 101 114C122 122 143 126 159 123L157 132C138 135 117 130 93 121C64 110 42 110 22 122L25 111Z" fill="#d83124"/>
  <path d="M19 130C39 118 63 118 93 129C115 138 136 143 155 140L152 150C132 152 109 147 86 138C58 127 37 129 16 140L19 130Z" fill="#d83124"/>
  <path d="M29 100C42 95 57 95 75 99L67 122C48 119 35 122 21 131L29 100Z" fill="#1e67b1"/>
  <g fill="#fff">
    <circle cx="36" cy="105" r="2"/>
    <circle cx="48" cy="102" r="2"/>
    <circle cx="60" cy="103" r="2"/>
    <circle cx="33" cy="116" r="2"/>
    <circle cx="45" cy="113" r="2"/>
    <circle cx="57" cy="115" r="2"/>
  </g>
  <g filter="url(#textShadow)">
    <text x="179" y="101" fill="#fff" font-family="Arial Black, Arial, sans-serif" font-size="76" font-weight="900" letter-spacing="-3">CONAD</text>
  </g>
</svg>
